<?xml version="1.0" standalone="no"?>
<!DOCTYPE svg PUBLIC "-//W3C//DTD SVG 20010904//EN"
 "http://www.w3.org/TR/2001/REC-SVG-20010904/DTD/svg10.dtd">
<svg version="1.0" xmlns="http://www.w3.org/2000/svg"
 width="456.000000pt" height="456.000000pt" viewBox="0 0 456.000000 456.000000"
 preserveAspectRatio="xMidYMid meet">

<g transform="translate(0.000000,456.000000) scale(0.100000,-0.100000)"
fill="#000000" stroke="none">
<path d="M1300 3875 c-30 -7 -67 -14 -82 -14 -16 -1 -28 -5 -28 -11 0 -5 -8
-10 -17 -10 -26 0 -152 -67 -198 -105 -117 -96 -202 -203 -249 -315 -54 -129
-51 -73 -51 -1140 0 -1067 -3 -1011 51 -1140 47 -112 132 -219 249 -315 46
-38 172 -105 198 -105 9 0 17 -4 17 -8 0 -5 35 -15 78 -23 114 -21 1900 -21
2015 0 42 8 77 18 77 23 0 4 8 8 18 8 27 0 149 65 201 108 114 92 198 200 245
312 54 129 51 73 51 1140 0 1067 3 1011 -51 1140 -66 157 -205 306 -359 385
-38 19 -77 35 -87 35 -10 0 -18 4 -18 8 0 5 -33 15 -72 22 -103 20 -1905 24
-1988 5z m1274 -790 c143 -47 231 -96 320 -179 27 -25 56 -46 64 -46 34 0 131
-58 183 -110 171 -170 171 -449 0 -621 -65 -64 -160 -115 -242 -128 -52 -9
-63 -15 -125 -79 -56 -55 -84 -75 -146 -100 -42 -18 -90 -32 -107 -32 -21 0
-39 -9 -54 -26 -24 -28 -130 -177 -203 -286 -70 -105 -107 -126 -159 -92 -27
18 -40 70 -50 204 -9 120 -10 123 -48 114 -18 -3 -38 -11 -45 -17 -18 -14
-250 -13 -265 2 -6 6 -17 11 -25 11 -18 0 -100 38 -140 65 -121 82 -196 192
-233 340 -32 130 -14 307 41 397 11 18 24 42 29 53 15 33 116 128 177 165 61
38 98 70 128 114 76 107 228 206 391 254 96 29 119 31 285 27 123 -3 157 -8
224 -30z"/>
</g>
</svg>
