<svg xmlns="http://www.w3.org/2000/svg"  viewBox="0 0 50 50" width="250px" height="250px"><path d="M36,4H14C8.486,4,4,8.486,4,14v22c0,5.514,4.486,10,10,10h22c5.514,0,10-4.486,10-10V14C46,8.486,41.514,4,36,4z M32.318,28.732c-1,1.614-2.741,2.654-4.644,2.748l-3.535,4.969c-0.19,0.268-0.496,0.42-0.814,0.42	c-0.085,0-0.171-0.011-0.256-0.033c-0.402-0.106-0.697-0.452-0.739-0.866l-0.363-3.597c-1.851,0.754-3.822,0.741-5.616-0.057	c-1.847-0.822-3.28-2.408-3.933-4.354c-1.282-3.83,0.532-7.842,4.146-9.323c1.529-2.791,5.064-4.64,8.95-4.64	c3.218,0,6.178,1.226,8.003,3.296C36.137,17.902,38,20.214,38,22.931C38,26.09,35.463,28.667,32.318,28.732z"/></svg>